<?xml version="1.0" encoding="UTF-8"?>
<svg xmlns="http://www.w3.org/2000/svg" width="1763" height="1526" viewBox="0 0 1763 1526" role="img" aria-labelledby="title description" font-family="&quot;Microsoft JhengHei&quot;, &quot;Noto Sans TC&quot;, &quot;PingFang TC&quot;, sans-serif">
  <title id="title">Full-system Chen conceptual model</title>
  <desc id="description">Rectangles: entities; diamonds: relationships; ellipses: attributes; underline: primary key; double line: total participation.</desc>
  <rect x="0" y="0" width="1763" height="1526" fill="#111827"/>
  <line data-attribute-line="entity:DEPARTMENT:attribute:DEPARTMENT:DEPARTMENT_ID" x1="1403.15789473684" y1="92" x2="1333.84886254031" y2="57.5719840069528" stroke="#a8bacd" stroke-width="1.5"/>
  <line data-attribute-line="entity:DEPARTMENT:attribute:DEPARTMENT:DEPARTMENT_CODE" x1="1452.76315789474" y1="92" x2="1449.3940529253" y2="59.9935027903047" stroke="#a8bacd" stroke-width="1.5"/>
  <line data-attribute-line="entity:DEPARTMENT:attribute:DEPARTMENT:DEPARTMENT_NAME" x1="1505.10526315789" y1="92" x2="1569.62609724897" y2="58.1821835108843" stroke="#a8bacd" stroke-width="1.5"/>
  <line data-attribute-line="entity:REQUISITION:attribute:REQUISITION:REQUISITION_ID" x1="1521" y1="532.4" x2="1553" y2="476" stroke="#a8bacd" stroke-width="1.5"/>
  <line data-attribute-line="entity:REQUISITION:attribute:REQUISITION:REQUISITION_NO" x1="1521" y1="542.8" x2="1553" y2="524" stroke="#a8bacd" stroke-width="1.5"/>
  <line data-attribute-line="entity:REQUISITION:attribute:REQUISITION:STATUS" x1="1521" y1="553.2" x2="1553" y2="572" stroke="#a8bacd" stroke-width="1.5"/>
  <line data-attribute-line="entity:REQUISITION:attribute:REQUISITION:REJECTION_REASON" x1="1521" y1="563.6" x2="1553" y2="620" stroke="#a8bacd" stroke-width="1.5"/>
  <line data-attribute-line="entity:ITEM:attribute:ITEM:ITEM_ID" x1="802.5" y1="960.666666666667" x2="770.5" y2="882" stroke="#a8bacd" stroke-width="1.5"/>
  <line data-attribute-line="entity:ITEM:attribute:ITEM:ITEM_CODE" x1="802.5" y1="969.333333333333" x2="770.5" y2="930" stroke="#a8bacd" stroke-width="1.5"/>
  <line data-attribute-line="entity:ITEM:attribute:ITEM:ITEM_NAME" x1="802.5" y1="978" x2="770.5" y2="978" stroke="#a8bacd" stroke-width="1.5"/>
  <line data-attribute-line="entity:ITEM:attribute:ITEM:SAFETY_STOCK" x1="802.5" y1="986.666666666667" x2="770.5" y2="1026" stroke="#a8bacd" stroke-width="1.5"/>
  <line data-attribute-line="entity:ITEM:attribute:ITEM:BARCODE" x1="802.5" y1="995.333333333333" x2="770.5" y2="1074" stroke="#a8bacd" stroke-width="1.5"/>
  <line data-attribute-line="entity:REQUISITION_LINE:attribute:REQUISITION_LINE:REQUISITION_LINE_ID" x1="1541.5" y1="965" x2="1573.5" y2="930" stroke="#a8bacd" stroke-width="1.5"/>
  <line data-attribute-line="entity:REQUISITION_LINE:attribute:REQUISITION_LINE:LINE_NO" x1="1541.5" y1="978" x2="1573.5" y2="978" stroke="#a8bacd" stroke-width="1.5"/>
  <line data-attribute-line="entity:REQUISITION_LINE:attribute:REQUISITION_LINE:REQUESTED_QUANTITY" x1="1541.5" y1="991" x2="1573.5" y2="1026" stroke="#a8bacd" stroke-width="1.5"/>
  <line data-attribute-line="entity:STOCK_LOT:attribute:STOCK_LOT:STOCK_LOT_ID" x1="806.5" y1="1421.15820895522" x2="695.441802815119" y2="1471.54879394657" stroke="#a8bacd" stroke-width="1.5"/>
  <line data-attribute-line="entity:STOCK_LOT:attribute:STOCK_LOT:LOT_NUMBER" x1="812.578947368421" y1="1434" x2="783.638631840072" y2="1466.82782059932" stroke="#a8bacd" stroke-width="1.5"/>
  <line data-attribute-line="entity:STOCK_LOT:attribute:STOCK_LOT:EXPIRY_DATE" x1="852.605263157895" y1="1434" x2="873.927922544433" y2="1466.41044226754" stroke="#a8bacd" stroke-width="1.5"/>
  <line data-attribute-line="entity:STOCK_LOT:attribute:STOCK_LOT:LOT_QUANTITY" x1="864.5" y1="1421.68944099379" x2="967.544721151818" y2="1470.33166961204" stroke="#a8bacd" stroke-width="1.5"/>
  <line data-attribute-line="entity:STORAGE_LOCATION:attribute:STORAGE_LOCATION:LOCATION_ID" x1="168.631578947368" y1="1434" x2="106.3802430327" y2="1468.53358780668" stroke="#a8bacd" stroke-width="1.5"/>
  <line data-attribute-line="entity:STORAGE_LOCATION:attribute:STORAGE_LOCATION:LOCATION_CODE" x1="212.763157894737" y1="1434" x2="209.393866765598" y2="1466.00826572681" stroke="#a8bacd" stroke-width="1.5"/>
  <line data-attribute-line="entity:STORAGE_LOCATION:attribute:STORAGE_LOCATION:LOCATION_NAME" x1="259.631578947368" y1="1434" x2="317.051486928398" y2="1467.82878299658" stroke="#a8bacd" stroke-width="1.5"/>
  <line data-attribute-line="entity:USER:attribute:USER:USER_ID" x1="799" y1="103.664082687338" x2="673.925737967463" y2="54.5393079355409" stroke="#a8bacd" stroke-width="1.5"/>
  <line data-attribute-line="entity:USER:attribute:USER:USER_NAME" x1="804.539473684211" y1="92" x2="764.465743080347" y2="58.3469223658166" stroke="#a8bacd" stroke-width="1.5"/>
  <line data-attribute-line="entity:USER:attribute:USER:DISPLAY_NAME" x1="844.565789473684" y1="92" x2="855.759497402201" y2="59.8972904691591" stroke="#a8bacd" stroke-width="1.5"/>
  <line data-attribute-line="entity:USER:attribute:USER:EMPLOYEE_NO" x1="872" y1="101.438805970149" x2="968.426783294072" y2="57.6869520576149" stroke="#a8bacd" stroke-width="1.5"/>
  <line data-attribute-line="entity:ROLE:attribute:ROLE:ROLE_ID" x1="197.539473684211" y1="92" x2="174.832410603465" y2="59.1288229688255" stroke="#a8bacd" stroke-width="1.5"/>
  <line data-attribute-line="entity:ROLE:attribute:ROLE:ROLE_NAME" x1="230.723684210526" y1="92" x2="249.721243288625" y2="59.5547305632477" stroke="#a8bacd" stroke-width="1.5"/>
  <line data-attribute-line="entity:AUDIT_LOG:attribute:AUDIT_LOG:AUDIT_LOG_ID" x1="782" y1="532.4" x2="750" y2="476" stroke="#a8bacd" stroke-width="1.5"/>
  <line data-attribute-line="entity:AUDIT_LOG:attribute:AUDIT_LOG:ACTION" x1="782" y1="542.8" x2="750" y2="524" stroke="#a8bacd" stroke-width="1.5"/>
  <line data-attribute-line="entity:AUDIT_LOG:attribute:AUDIT_LOG:OCCURRED_AT" x1="782" y1="553.2" x2="750" y2="572" stroke="#a8bacd" stroke-width="1.5"/>
  <line data-attribute-line="entity:AUDIT_LOG:attribute:AUDIT_LOG:VALUES" x1="782" y1="563.6" x2="750" y2="620" stroke="#a8bacd" stroke-width="1.5"/>
  <line data-attribute-line="relationship:ALLOCATES:attribute:ALLOCATES:ALLOCATED_QUANTITY" x1="1162.20984455959" y1="1217.0932642487" x2="1239.15312610857" y2="1328.03473997049" stroke="#a8bacd" stroke-width="1.5"/>
  <line data-connection="SUBMITS:DEPARTMENT" x1="1455.5" y1="144" x2="1455.5" y2="302" stroke="#a8bacd" stroke-width="1.5"/>
  <line data-connection="SUBMITS:REQUISITION" x1="1452.5" y1="522" x2="1452.5" y2="364" stroke="#a8bacd" stroke-width="1.5"/>
  <line data-connection="SUBMITS:REQUISITION" x1="1458.5" y1="522" x2="1458.5" y2="364" stroke="#a8bacd" stroke-width="1.5"/>
  <line data-connection="CONTAINS:REQUISITION" x1="1458.5" y1="574" x2="1458.5" y2="732" stroke="#a8bacd" stroke-width="1.5"/>
  <line data-connection="CONTAINS:REQUISITION" x1="1452.5" y1="574" x2="1452.5" y2="732" stroke="#a8bacd" stroke-width="1.5"/>
  <line data-connection="CONTAINS:REQUISITION_LINE" x1="1452.5" y1="952" x2="1452.5" y2="794" stroke="#a8bacd" stroke-width="1.5"/>
  <line data-connection="CONTAINS:REQUISITION_LINE" x1="1458.5" y1="952" x2="1458.5" y2="794" stroke="#a8bacd" stroke-width="1.5"/>
  <line data-connection="REQUESTS:REQUISITION_LINE" x1="1369.5" y1="981" x2="1214" y2="981" stroke="#a8bacd" stroke-width="1.5"/>
  <line data-connection="REQUESTS:REQUISITION_LINE" x1="1369.5" y1="975" x2="1214" y2="975" stroke="#a8bacd" stroke-width="1.5"/>
  <line data-connection="REQUESTS:ITEM" x1="868.5" y1="978" x2="1077" y2="978" stroke="#a8bacd" stroke-width="1.5"/>
  <line data-connection="HOLDS:ITEM" x1="835.5" y1="1004" x2="835.5" y2="1162" stroke="#a8bacd" stroke-width="1.5"/>
  <line data-connection="HOLDS:STOCK_LOT" x1="832.5" y1="1382" x2="832.5" y2="1224" stroke="#a8bacd" stroke-width="1.5"/>
  <line data-connection="HOLDS:STOCK_LOT" x1="838.5" y1="1382" x2="838.5" y2="1224" stroke="#a8bacd" stroke-width="1.5"/>
  <line data-connection="ALLOCATES:REQUISITION_LINE" x1="1418.01" y1="1004" x2="1173.51" y2="1173.58" stroke="#a8bacd" stroke-width="1.5"/>
  <line data-connection="ALLOCATES:STOCK_LOT" x1="864.5" y1="1387.89" x2="1117.49" y2="1212.42" stroke="#a8bacd" stroke-width="1.5"/>
  <line data-connection="STORED_AT:STOCK_LOT" x1="806.5" y1="1411" x2="597" y2="1411" stroke="#a8bacd" stroke-width="1.5"/>
  <line data-connection="STORED_AT:STOCK_LOT" x1="806.5" y1="1405" x2="597" y2="1405" stroke="#a8bacd" stroke-width="1.5"/>
  <line data-connection="STORED_AT:STORAGE_LOCATION" x1="301.5" y1="1408" x2="454" y2="1408" stroke="#a8bacd" stroke-width="1.5"/>
  <line data-connection="BELONGS:DEPARTMENT" x1="1395" y1="118" x2="1223.5" y2="118" stroke="#a8bacd" stroke-width="1.5"/>
  <line data-connection="BELONGS:USER" x1="872" y1="118" x2="1067.5" y2="118" stroke="#a8bacd" stroke-width="1.5"/>
  <line data-connection="ASSIGNS:USER" x1="799" y1="118" x2="623" y2="118" stroke="#a8bacd" stroke-width="1.5"/>
  <line data-connection="ASSIGNS:ROLE" x1="248.5" y1="118" x2="428" y2="118" stroke="#a8bacd" stroke-width="1.5"/>
  <line data-connection="LEAVES:USER" x1="835.5" y1="144" x2="835.5" y2="302" stroke="#a8bacd" stroke-width="1.5"/>
  <line data-connection="LEAVES:AUDIT_LOG" x1="832.5" y1="522" x2="832.5" y2="364" stroke="#a8bacd" stroke-width="1.5"/>
  <line data-connection="LEAVES:AUDIT_LOG" x1="838.5" y1="522" x2="838.5" y2="364" stroke="#a8bacd" stroke-width="1.5"/>
  <rect data-cardinality-label="label:SUBMITS:DEPARTMENT" x="1460.25" y="148.5" width="13" height="19" fill="#111827"/>
  <text x="1466.75" y="162.5" text-anchor="middle" font-size="13" fill="#f4f7fb">1</text>
  <rect data-cardinality-label="label:SUBMITS:REQUISITION" x="1463.25" y="498.5" width="13" height="19" fill="#111827"/>
  <text x="1469.75" y="512.5" text-anchor="middle" font-size="13" fill="#f4f7fb">N</text>
  <rect data-cardinality-label="label:CONTAINS:REQUISITION" x="1463.25" y="578.5" width="13" height="19" fill="#111827"/>
  <text x="1469.75" y="592.5" text-anchor="middle" font-size="13" fill="#f4f7fb">1</text>
  <rect data-cardinality-label="label:CONTAINS:REQUISITION_LINE" x="1463.25" y="928.5" width="13" height="19" fill="#111827"/>
  <text x="1469.75" y="942.5" text-anchor="middle" font-size="13" fill="#f4f7fb">N</text>
  <rect data-cardinality-label="label:REQUESTS:REQUISITION_LINE" x="1349" y="951.25" width="13" height="19" fill="#111827"/>
  <text x="1355.5" y="965.25" text-anchor="middle" font-size="13" fill="#f4f7fb">N</text>
  <rect data-cardinality-label="label:REQUESTS:ITEM" x="876" y="954.25" width="13" height="19" fill="#111827"/>
  <text x="882.5" y="968.25" text-anchor="middle" font-size="13" fill="#f4f7fb">1</text>
  <rect data-cardinality-label="label:HOLDS:ITEM" x="840.25" y="1008.5" width="13" height="19" fill="#111827"/>
  <text x="846.75" y="1022.5" text-anchor="middle" font-size="13" fill="#f4f7fb">1</text>
  <rect data-cardinality-label="label:HOLDS:STOCK_LOT" x="843.25" y="1358.5" width="13" height="19" fill="#111827"/>
  <text x="849.75" y="1372.5" text-anchor="middle" font-size="13" fill="#f4f7fb">N</text>
  <rect data-cardinality-label="label:ALLOCATES:REQUISITION_LINE" x="1409.27453918945" y="1015.84018837705" width="13" height="19" fill="#111827"/>
  <text x="1415.77453918945" y="1029.84018837705" text-anchor="middle" font-size="13" fill="#f4f7fb">M</text>
  <rect data-cardinality-label="label:ALLOCATES:STOCK_LOT" x="878.77092506901" y="1383.77011429929" width="13" height="19" fill="#111827"/>
  <text x="885.27092506901" y="1397.77011429929" text-anchor="middle" font-size="13" fill="#f4f7fb">N</text>
  <rect data-cardinality-label="label:STORED_AT:STOCK_LOT" x="786" y="1381.25" width="13" height="19" fill="#111827"/>
  <text x="792.5" y="1395.25" text-anchor="middle" font-size="13" fill="#f4f7fb">N</text>
  <rect data-cardinality-label="label:STORED_AT:STORAGE_LOCATION" x="309" y="1384.25" width="13" height="19" fill="#111827"/>
  <text x="315.5" y="1398.25" text-anchor="middle" font-size="13" fill="#f4f7fb">1</text>
  <rect data-cardinality-label="label:BELONGS:DEPARTMENT" x="1374.5" y="94.25" width="13" height="19" fill="#111827"/>
  <text x="1381" y="108.25" text-anchor="middle" font-size="13" fill="#f4f7fb">1</text>
  <rect data-cardinality-label="label:BELONGS:USER" x="879.5" y="122.75" width="13" height="19" fill="#111827"/>
  <text x="886" y="136.75" text-anchor="middle" font-size="13" fill="#f4f7fb">N</text>
  <rect data-cardinality-label="label:ASSIGNS:USER" x="778.5" y="122.75" width="13" height="19" fill="#111827"/>
  <text x="785" y="136.75" text-anchor="middle" font-size="13" fill="#f4f7fb">M</text>
  <rect data-cardinality-label="label:ASSIGNS:ROLE" x="256" y="94.25" width="13" height="19" fill="#111827"/>
  <text x="262.5" y="108.25" text-anchor="middle" font-size="13" fill="#f4f7fb">N</text>
  <rect data-cardinality-label="label:LEAVES:USER" x="840.25" y="148.5" width="13" height="19" fill="#111827"/>
  <text x="846.75" y="162.5" text-anchor="middle" font-size="13" fill="#f4f7fb">1</text>
  <rect data-cardinality-label="label:LEAVES:AUDIT_LOG" x="843.25" y="498.5" width="13" height="19" fill="#111827"/>
  <text x="849.75" y="512.5" text-anchor="middle" font-size="13" fill="#f4f7fb">N</text>
  <rect data-element="entity:DEPARTMENT" x="1395" y="92" width="121" height="52" fill="#24364b" stroke="#98afc6" stroke-width="1.5"/>
  <text x="1455.5" y="123.25" text-anchor="middle" font-size="15" fill="#f4f7fb">Department</text>
  <ellipse data-element="attribute:DEPARTMENT:DEPARTMENT_ID" cx="1302.5" cy="42" rx="62.5" ry="18" fill="#1c2a3b" stroke="#98afc6" stroke-width="1.5"/>
  <text x="1302.5" y="46.55" text-anchor="middle" font-size="13" fill="#f4f7fb">Department ID</text>
  <line data-primary-key="attribute:DEPARTMENT:DEPARTMENT_ID" x1="1252.19" y1="49.55" x2="1352.81" y2="49.55" stroke="#f4f7fb" stroke-width="1"/>
  <ellipse data-element="attribute:DEPARTMENT:DEPARTMENT_CODE" cx="1447.5" cy="42" rx="70.5" ry="18" fill="#1c2a3b" stroke="#98afc6" stroke-width="1.5"/>
  <text x="1447.5" y="46.55" text-anchor="middle" font-size="13" fill="#f4f7fb">Department code</text>
  <ellipse data-element="attribute:DEPARTMENT:DEPARTMENT_NAME" cx="1600.5" cy="42" rx="70.5" ry="18" fill="#1c2a3b" stroke="#98afc6" stroke-width="1.5"/>
  <text x="1600.5" y="46.55" text-anchor="middle" font-size="13" fill="#f4f7fb">Department name</text>
  <rect data-element="entity:REQUISITION" x="1390" y="522" width="131" height="52" fill="#24364b" stroke="#98afc6" stroke-width="1.5"/>
  <text x="1455.5" y="553.25" text-anchor="middle" font-size="15" fill="#f4f7fb">Requisition</text>
  <ellipse data-element="attribute:REQUISITION:REQUISITION_ID" cx="1619.5" cy="476" rx="66.5" ry="18" fill="#1c2a3b" stroke="#98afc6" stroke-width="1.5"/>
  <text x="1619.5" y="480.55" text-anchor="middle" font-size="13" fill="#f4f7fb">Requisition ID</text>
  <line data-primary-key="attribute:REQUISITION:REQUISITION_ID" x1="1565.16" y1="483.55" x2="1673.84" y2="483.55" stroke="#f4f7fb" stroke-width="1"/>
  <ellipse data-element="attribute:REQUISITION:REQUISITION_NO" cx="1635.5" cy="524" rx="82.5" ry="18" fill="#1c2a3b" stroke="#98afc6" stroke-width="1.5"/>
  <text x="1635.5" y="528.55" text-anchor="middle" font-size="13" fill="#f4f7fb">Requisition number</text>
  <ellipse data-element="attribute:REQUISITION:STATUS" cx="1589.5" cy="572" rx="36.5" ry="18" fill="#1c2a3b" stroke="#98afc6" stroke-width="1.5"/>
  <text x="1589.5" y="576.55" text-anchor="middle" font-size="13" fill="#f4f7fb">Status</text>
  <ellipse data-element="attribute:REQUISITION:REJECTION_REASON" cx="1627.5" cy="620" rx="74.5" ry="18" fill="#1c2a3b" stroke="#98afc6" stroke-width="1.5"/>
  <text x="1627.5" y="624.55" text-anchor="middle" font-size="13" fill="#f4f7fb">Rejection reason</text>
  <rect data-element="entity:ITEM" x="802.5" y="952" width="66" height="52" fill="#24364b" stroke="#98afc6" stroke-width="1.5"/>
  <text x="835.5" y="983.25" text-anchor="middle" font-size="15" fill="#f4f7fb">Item</text>
  <ellipse data-element="attribute:ITEM:ITEM_ID" cx="732" cy="882" rx="38.5" ry="18" fill="#1c2a3b" stroke="#98afc6" stroke-width="1.5"/>
  <text x="732" y="886.55" text-anchor="middle" font-size="13" fill="#f4f7fb">Item ID</text>
  <line data-primary-key="attribute:ITEM:ITEM_ID" x1="705.87" y1="889.55" x2="758.13" y2="889.55" stroke="#f4f7fb" stroke-width="1"/>
  <ellipse data-element="attribute:ITEM:ITEM_CODE" cx="724" cy="930" rx="46.5" ry="18" fill="#1c2a3b" stroke="#98afc6" stroke-width="1.5"/>
  <text x="724" y="934.55" text-anchor="middle" font-size="13" fill="#f4f7fb">Item code</text>
  <ellipse data-element="attribute:ITEM:ITEM_NAME" cx="724" cy="978" rx="46.5" ry="18" fill="#1c2a3b" stroke="#98afc6" stroke-width="1.5"/>
  <text x="724" y="982.55" text-anchor="middle" font-size="13" fill="#f4f7fb">Item name</text>
  <ellipse data-element="attribute:ITEM:SAFETY_STOCK" cx="712" cy="1026" rx="58.5" ry="18" fill="#1c2a3b" stroke="#98afc6" stroke-width="1.5"/>
  <text x="712" y="1030.55" text-anchor="middle" font-size="13" fill="#f4f7fb">Safety stock</text>
  <ellipse data-element="attribute:ITEM:BARCODE" cx="730" cy="1074" rx="40.5" ry="18" fill="#1c2a3b" stroke="#98afc6" stroke-width="1.5"/>
  <text x="730" y="1078.55" text-anchor="middle" font-size="13" fill="#f4f7fb">Barcode</text>
  <rect data-element="entity:REQUISITION_LINE" x="1369.5" y="952" width="172" height="52" fill="#24364b" stroke="#98afc6" stroke-width="1.5"/>
  <text x="1455.5" y="983.25" text-anchor="middle" font-size="15" fill="#f4f7fb">Requisition line</text>
  <ellipse data-element="attribute:REQUISITION_LINE:REQUISITION_LINE_ID" cx="1612" cy="930" rx="38.5" ry="18" fill="#1c2a3b" stroke="#98afc6" stroke-width="1.5"/>
  <text x="1612" y="934.55" text-anchor="middle" font-size="13" fill="#f4f7fb">Line ID</text>
  <line data-primary-key="attribute:REQUISITION_LINE:REQUISITION_LINE_ID" x1="1585.87" y1="937.55" x2="1638.13" y2="937.55" stroke="#f4f7fb" stroke-width="1"/>
  <ellipse data-element="attribute:REQUISITION_LINE:LINE_NO" cx="1628" cy="978" rx="54.5" ry="18" fill="#1c2a3b" stroke="#98afc6" stroke-width="1.5"/>
  <text x="1628" y="982.55" text-anchor="middle" font-size="13" fill="#f4f7fb">Line number</text>
  <ellipse data-element="attribute:REQUISITION_LINE:REQUESTED_QUANTITY" cx="1656" cy="1026" rx="82.5" ry="18" fill="#1c2a3b" stroke="#98afc6" stroke-width="1.5"/>
  <text x="1656" y="1030.55" text-anchor="middle" font-size="13" fill="#f4f7fb">Requested quantity</text>
  <rect data-element="entity:STOCK_LOT" x="806.5" y="1382" width="58" height="52" fill="#24364b" stroke="#98afc6" stroke-width="1.5"/>
  <text x="835.5" y="1413.25" text-anchor="middle" font-size="15" fill="#f4f7fb">Lot</text>
  <ellipse data-element="attribute:STOCK_LOT:STOCK_LOT_ID" cx="668" cy="1484" rx="38" ry="18" fill="#1c2a3b" stroke="#98afc6" stroke-width="1.5"/>
  <text x="668" y="1488.55" text-anchor="middle" font-size="13" fill="#f4f7fb">Lot ID</text>
  <line data-primary-key="attribute:STOCK_LOT:STOCK_LOT_ID" x1="645.9" y1="1491.55" x2="690.1" y2="1491.55" stroke="#f4f7fb" stroke-width="1"/>
  <ellipse data-element="attribute:STOCK_LOT:LOT_NUMBER" cx="768.5" cy="1484" rx="50.5" ry="18" fill="#1c2a3b" stroke="#98afc6" stroke-width="1.5"/>
  <text x="768.5" y="1488.55" text-anchor="middle" font-size="13" fill="#f4f7fb">Lot number</text>
  <ellipse data-element="attribute:STOCK_LOT:EXPIRY_DATE" cx="885.5" cy="1484" rx="54.5" ry="18" fill="#1c2a3b" stroke="#98afc6" stroke-width="1.5"/>
  <text x="885.5" y="1488.55" text-anchor="middle" font-size="13" fill="#f4f7fb">Expiry date</text>
  <ellipse data-element="attribute:STOCK_LOT:LOT_QUANTITY" cx="996.5" cy="1484" rx="44.5" ry="18" fill="#1c2a3b" stroke="#98afc6" stroke-width="1.5"/>
  <text x="996.5" y="1488.55" text-anchor="middle" font-size="13" fill="#f4f7fb">Quantity</text>
  <rect data-element="entity:STORAGE_LOCATION" x="129.5" y="1382" width="172" height="52" fill="#24364b" stroke="#98afc6" stroke-width="1.5"/>
  <text x="215.5" y="1413.25" text-anchor="middle" font-size="15" fill="#f4f7fb">Storage location</text>
  <ellipse data-element="attribute:STORAGE_LOCATION:LOCATION_ID" cx="78.5" cy="1484" rx="54.5" ry="18" fill="#1c2a3b" stroke="#98afc6" stroke-width="1.5"/>
  <text x="78.5" y="1488.55" text-anchor="middle" font-size="13" fill="#f4f7fb">Location ID</text>
  <line data-primary-key="attribute:STORAGE_LOCATION:LOCATION_ID" x1="36.25" y1="1491.55" x2="120.75" y2="1491.55" stroke="#f4f7fb" stroke-width="1"/>
  <ellipse data-element="attribute:STORAGE_LOCATION:LOCATION_CODE" cx="207.5" cy="1484" rx="62.5" ry="18" fill="#1c2a3b" stroke="#98afc6" stroke-width="1.5"/>
  <text x="207.5" y="1488.55" text-anchor="middle" font-size="13" fill="#f4f7fb">Location code</text>
  <ellipse data-element="attribute:STORAGE_LOCATION:LOCATION_NAME" cx="344.5" cy="1484" rx="62.5" ry="18" fill="#1c2a3b" stroke="#98afc6" stroke-width="1.5"/>
  <text x="344.5" y="1488.55" text-anchor="middle" font-size="13" fill="#f4f7fb">Location name</text>
  <rect data-element="entity:USER" x="799" y="92" width="73" height="52" fill="#24364b" stroke="#98afc6" stroke-width="1.5"/>
  <text x="835.5" y="123.25" text-anchor="middle" font-size="15" fill="#f4f7fb">User</text>
  <ellipse data-element="attribute:USER:USER_ID" cx="642" cy="42" rx="44.5" ry="18" fill="#1c2a3b" stroke="#98afc6" stroke-width="1.5"/>
  <text x="642" y="46.55" text-anchor="middle" font-size="13" fill="#f4f7fb">User ID</text>
  <line data-primary-key="attribute:USER:USER_ID" x1="615.87" y1="49.55" x2="668.13" y2="49.55" stroke="#f4f7fb" stroke-width="1"/>
  <ellipse data-element="attribute:USER:USER_NAME" cx="745" cy="42" rx="46.5" ry="18" fill="#1c2a3b" stroke="#98afc6" stroke-width="1.5"/>
  <text x="745" y="46.55" text-anchor="middle" font-size="13" fill="#f4f7fb">User name</text>
  <ellipse data-element="attribute:USER:DISPLAY_NAME" cx="862" cy="42" rx="58.5" ry="18" fill="#1c2a3b" stroke="#98afc6" stroke-width="1.5"/>
  <text x="862" y="46.55" text-anchor="middle" font-size="13" fill="#f4f7fb">Display name</text>
  <ellipse data-element="attribute:USER:EMPLOYEE_NO" cx="1003" cy="42" rx="70.5" ry="18" fill="#1c2a3b" stroke="#98afc6" stroke-width="1.5"/>
  <text x="1003" y="46.55" text-anchor="middle" font-size="13" fill="#f4f7fb">Employee number</text>
  <rect data-element="entity:ROLE" x="182.5" y="92" width="66" height="52" fill="#24364b" stroke="#98afc6" stroke-width="1.5"/>
  <text x="215.5" y="123.25" text-anchor="middle" font-size="15" fill="#f4f7fb">Role</text>
  <ellipse data-element="attribute:ROLE:ROLE_ID" cx="163" cy="42" rx="38.5" ry="18" fill="#1c2a3b" stroke="#98afc6" stroke-width="1.5"/>
  <text x="163" y="46.55" text-anchor="middle" font-size="13" fill="#f4f7fb">Role ID</text>
  <line data-primary-key="attribute:ROLE:ROLE_ID" x1="136.87" y1="49.55" x2="189.13" y2="49.55" stroke="#f4f7fb" stroke-width="1"/>
  <ellipse data-element="attribute:ROLE:ROLE_NAME" cx="260" cy="42" rx="46.5" ry="18" fill="#1c2a3b" stroke="#98afc6" stroke-width="1.5"/>
  <text x="260" y="46.55" text-anchor="middle" font-size="13" fill="#f4f7fb">Role name</text>
  <rect data-element="entity:AUDIT_LOG" x="782" y="522" width="107" height="52" fill="#24364b" stroke="#98afc6" stroke-width="1.5"/>
  <text x="835.5" y="553.25" text-anchor="middle" font-size="15" fill="#f4f7fb">Audit log</text>
  <ellipse data-element="attribute:AUDIT_LOG:AUDIT_LOG_ID" cx="693.5" cy="476" rx="56.5" ry="18" fill="#1c2a3b" stroke="#98afc6" stroke-width="1.5"/>
  <text x="693.5" y="480.55" text-anchor="middle" font-size="13" fill="#f4f7fb">Audit log ID</text>
  <line data-primary-key="attribute:AUDIT_LOG:AUDIT_LOG_ID" x1="649.3" y1="483.55" x2="737.7" y2="483.55" stroke="#f4f7fb" stroke-width="1"/>
  <ellipse data-element="attribute:AUDIT_LOG:ACTION" cx="713.5" cy="524" rx="36.5" ry="18" fill="#1c2a3b" stroke="#98afc6" stroke-width="1.5"/>
  <text x="713.5" y="528.55" text-anchor="middle" font-size="13" fill="#f4f7fb">Action</text>
  <ellipse data-element="attribute:AUDIT_LOG:OCCURRED_AT" cx="695.5" cy="572" rx="54.5" ry="18" fill="#1c2a3b" stroke="#98afc6" stroke-width="1.5"/>
  <text x="695.5" y="576.55" text-anchor="middle" font-size="13" fill="#f4f7fb">Occurred at</text>
  <ellipse data-element="attribute:AUDIT_LOG:VALUES" cx="671.5" cy="620" rx="78.5" ry="18" fill="#1c2a3b" stroke="#98afc6" stroke-width="1.5"/>
  <text x="671.5" y="624.55" text-anchor="middle" font-size="13" fill="#f4f7fb">Old and new values</text>
  <polygon data-element="relationship:SUBMITS" points="1455.5,302 1517.5,333 1455.5,364 1393.5,333" fill="#473b25" stroke="#98afc6" stroke-width="1.5"/>
  <text x="1455.5" y="338.25" text-anchor="middle" font-size="15" fill="#f4f7fb">Submits</text>
  <polygon data-element="relationship:CONTAINS" points="1455.5,732 1524,763 1455.5,794 1387,763" fill="#473b25" stroke="#98afc6" stroke-width="1.5"/>
  <text x="1455.5" y="768.25" text-anchor="middle" font-size="15" fill="#f4f7fb">Contains</text>
  <polygon data-element="relationship:REQUESTS" points="1145.5,947 1214,978 1145.5,1009 1077,978" fill="#473b25" stroke="#98afc6" stroke-width="1.5"/>
  <text x="1145.5" y="983.25" text-anchor="middle" font-size="15" fill="#f4f7fb">Requests</text>
  <polygon data-element="relationship:HOLDS" points="835.5,1162 884.5,1193 835.5,1224 786.5,1193" fill="#473b25" stroke="#98afc6" stroke-width="1.5"/>
  <text x="835.5" y="1198.25" text-anchor="middle" font-size="15" fill="#f4f7fb">Holds</text>
  <polygon data-element="relationship:ALLOCATES" points="1145.5,1162 1220.5,1193 1145.5,1224 1070.5,1193" fill="#473b25" stroke="#98afc6" stroke-width="1.5"/>
  <text x="1145.5" y="1198.25" text-anchor="middle" font-size="15" fill="#f4f7fb">Allocates</text>
  <ellipse data-element="attribute:ALLOCATES:ALLOCATED_QUANTITY" cx="1253.49585273019" cy="1348.71495044818" rx="82.5" ry="21" fill="#1c2a3b" stroke="#98afc6" stroke-width="1.5"/>
  <text x="1253.49585273019" y="1353.26495044818" text-anchor="middle" font-size="13" fill="#f4f7fb">Allocated quantity</text>
  <polygon data-element="relationship:STORED_AT" points="525.5,1377 597,1408 525.5,1439 454,1408" fill="#473b25" stroke="#98afc6" stroke-width="1.5"/>
  <text x="525.5" y="1413.25" text-anchor="middle" font-size="15" fill="#f4f7fb">Stored at</text>
  <polygon data-element="relationship:BELONGS" points="1145.5,87 1223.5,118 1145.5,149 1067.5,118" fill="#473b25" stroke="#98afc6" stroke-width="1.5"/>
  <text x="1145.5" y="123.25" text-anchor="middle" font-size="15" fill="#f4f7fb">Belongs to</text>
  <polygon data-element="relationship:ASSIGNS" points="525.5,87 623,118 525.5,149 428,118" fill="#473b25" stroke="#98afc6" stroke-width="1.5"/>
  <text x="525.5" y="123.25" text-anchor="middle" font-size="15" fill="#f4f7fb">Assigned role</text>
  <polygon data-element="relationship:LEAVES" points="835.5,302 891,333 835.5,364 780,333" fill="#473b25" stroke="#98afc6" stroke-width="1.5"/>
  <text x="835.5" y="338.25" text-anchor="middle" font-size="15" fill="#f4f7fb">Leaves</text>
</svg>
